<?xml version="1.0" encoding="UTF-8"?>
<svg version="1.1" xmlns="http://www.w3.org/2000/svg" width="178" height="200">
<path d="M0 0 C58.74 0 117.48 0 178 0 C178 66 178 132 178 200 C119.26 200 60.52 200 0 200 C0 134 0 68 0 0 Z " fill="#FDFEFE" transform="translate(0,0)"/>
<path d="M0 0 C25.74 0 51.48 0 78 0 C78.33 11.22 78.66 22.44 79 34 C90.22 34.33 101.44 34.66 113 35 C113 60.74 113 86.48 113 113 C101.78 113.33 90.56 113.66 79 114 C78.67 125.22 78.34 136.44 78 148 C52.26 148 26.52 148 0 148 C0 99.16 0 50.32 0 0 Z " fill="#8AB4F8" transform="translate(35,24)"/>
<path d="M0 0 C8.25 0 16.5 0 25 0 C26.75518106 1.75518106 26.12760783 4.22349715 26.12939453 6.60546875 C26.13254669 7.80341064 26.13569885 9.00135254 26.13894653 10.2355957 C26.1369223 11.53972412 26.13489807 12.84385254 26.1328125 14.1875 C26.1334856 15.52889015 26.13445568 16.87028019 26.13571167 18.21166992 C26.13718836 21.02621621 26.13503504 23.84073082 26.13037109 26.65527344 C26.12467381 30.27040631 26.12795297 33.88546495 26.13394356 37.50059509 C26.13754997 40.27144942 26.13641022 43.04228602 26.13381577 45.81314087 C26.13282033 47.79689583 26.13586741 49.78065147 26.13894653 51.7644043 C26.13579437 52.96234619 26.13264221 54.16028809 26.12939453 55.39453125 C26.12859894 56.45518799 26.12780334 57.51584473 26.12698364 58.60864258 C26 61 26 61 25 62 C16.75 62 8.5 62 0 62 C0 41.54 0 21.08 0 0 Z " fill="#FCFDFE" transform="translate(79,67)"/>
<path d="M0 0 C0.33 0 0.66 0 1 0 C1 3.63 1 7.26 1 11 C-2.63 11 -6.26 11 -10 11 C-9.2575 10.4225 -8.515 9.845 -7.75 9.25 C-2.84723845 5.3688654 -2.84723845 5.3688654 0 0 Z " fill="#000000" transform="translate(177,189)"/>
<path d="M0 0 C0.86625 1.11375 0.86625 1.11375 1.75 2.25 C4.59626291 5.72876577 7.25497183 8.50331456 11 11 C7.37 11 3.74 11 0 11 C0 7.37 0 3.74 0 0 Z " fill="#000000" transform="translate(0,189)"/>
<path d="M0 0 C3.63 0 7.26 0 11 0 C11 3.63 11 7.26 11 11 C10.4225 10.2575 9.845 9.515 9.25 8.75 C6.40373709 5.27123423 3.74502817 2.49668544 0 0 Z " fill="#000000" transform="translate(167,0)"/>
<path d="M0 0 C3.63 0 7.26 0 11 0 C10.2575 0.5775 9.515 1.155 8.75 1.75 C5.27123423 4.59626291 2.49668544 7.25497183 0 11 C0 7.37 0 3.74 0 0 Z " fill="#000000" transform="translate(0,0)"/>
</svg>
